<?xml version="1.0" encoding="utf-8"?>
<!-- Generator: Adobe Illustrator 28.4.1, SVG Export Plug-In . SVG Version: 6.00 Build 0)  -->
<svg version="1.1" id="Layer_1" xmlns="http://www.w3.org/2000/svg" xmlns:xlink="http://www.w3.org/1999/xlink" x="0px" y="0px"
	 viewBox="0 0 900 600" style="enable-background:new 0 0 900 600;" xml:space="preserve">
<style type="text/css">
	.st0{fill:#FFFFFF;}
	.st1{fill:#101417;}
	.st2{fill:#2C3032;}
	.st3{fill:#33373A;}
	.st4{fill:#171A1C;}
	.st5{fill:#333738;}
	.st6{fill:#28292B;}
	.st7{fill:#28292A;}
	.st8{fill:#1D2022;}
	.st9{fill:#1E2124;}
	.st10{fill:#272A2C;}
	.st11{fill:#212528;}
	.st12{fill:#1D1D1E;}
	.st13{fill:#393B3B;}
	.st14{fill:#C5C5C5;}
	.st15{fill:#C5C4C4;}
	.st16{fill:#C1C1C1;}
	.st17{fill:#939698;}
	.st18{fill:#58595B;}
	.st19{fill:#E3E3E3;}
	.st20{fill:#484B4B;}
	.st21{fill:#C5C5C4;}
	.st22{fill:#2A2E30;}
	.st23{fill:#442F22;}
	.st24{fill:#2F211C;}
	.st25{fill:#24282A;}
	.st26{fill:#CB8039;}
	.st27{fill:#D07F32;}
	.st28{fill:#CE8032;}
	.st29{fill:#EA892D;}
	.st30{fill:#888C90;}
	.st31{fill:#121618;}
	.st32{fill:#181C1F;}
	.st33{fill:#1F2326;}
	.st34{fill:#131618;}
	.st35{fill:#181B1E;}
	.st36{fill:#1B1F21;}
	.st37{fill:#131619;}
	.st38{fill:#1A1D20;}
	.st39{fill:#191D1F;}
	.st40{fill:#232629;}
	.st41{fill:#202427;}
</style>
<path class="st0" d="M4.8,323.9"/>
<path class="st1" d="M442.5,520.5c-3.1-1.9-2.1,0.8-2.3,2.1c-0.3,1.6,1.1,4.4-0.9,4.5c-2.9,0.2-1.4-2.9-1.8-4.5
	c-0.2-0.7,0-1.6-1-1.9c-0.2,0.1-0.6,0.2-0.7,0.4c-0.8,2.1,0.2,6.3-2.7,5.9c-3.6-0.5-0.7-4.1-0.9-6.4c-0.2-1.7-0.1-3.5,0.3-5.2
	c2.2-8.7,1-16.3-6.2-22.3c-16.7-22-29-46.2-37.8-72.3c-6-17.6-8.3-35.6-2.7-53.9c1.9-6.3,4.4-12.3,7.8-17.9
	c3.9-6.4,2.4-17.3-3.3-22.1c-21.9-18.3-43.5-36.9-65.3-55.1c-5.9-4.9-11.8-9.9-17.7-14.9c-8.7-7.3-14-16.7-16.2-27.9
	c-8-42-15.6-84.1-23.3-126.1c-0.3-1.9-2.5-4.9,1.7-5.8c6.4,8,9.7,17.3,12.3,27c7.4,27.4,14.8,54.8,22,82.3
	c4.6,17.6,14,31.8,28.6,42.7c23.1,17.3,46.1,34.8,69.2,52.2c1,0.8,2.2,1.5,4.1,2.8c-1-10.7-1-20.6,1.1-30.4c0.2-1-0.4-2.2-0.9-3.2
	c-10.8-21.8-5.5-41.7,6.8-61c2.6,0.5,3.7,2.8,5.3,4.2c5.1,4.4,10.5,8.5,15.1,13.4c7.5,7.9,17,6.7,26.3,6.8c2.6,0,4.5-2,6.6-3.4
	c8.9-6.1,16.8-13.4,24.9-21.6c12.1,18.8,17.9,38,8.2,59.4c-1.4,3.1-2,5.9-1.3,9.3c1.4,6.4,1.8,13,1.2,19.6c0.1,1.8-2.4,4.4,1.6,5.1
	c25.1-18.9,50.3-37.6,75.1-56.8c15.1-11.6,21.7-28.4,26.3-46.2c6.6-25.8,13.6-51.6,20.6-77.4c2.4-8.9,5.9-17.4,11.7-24.8
	c3.9,0.5,2.1,3.5,1.9,5.2c-1.3,9.7-3.6,19.3-5.3,29c-5.9,32.6-12.1,65.1-18,97.7c-2.2,12.1-8.6,21.7-18,29.4
	c-27.9,23.1-55.3,46.7-83.1,69.9c-5.6,4.7-7.2,11.8-3.4,17.6c15.4,23.5,15.7,48.6,7.2,74.3c-8.7,26.3-21.2,50.8-38,72.9
	c-10.4,7.8-6.5,18.4-5.8,28.5c0.1,0.9,0.4,1.9,0.6,2.8c0.2,1.2,0,2.4-1.4,2.8c-1.6,0.5-1.8-0.9-2.2-2c-0.7-1.5,0.2-3.4-1.2-4.8
	c-0.2,0.1-0.4,0.2-0.6,0.3c-2.2,1.6,1.1,6.6-2.7,6.1c-2-0.3-0.2-4.8-0.8-7.4c-0.3-1.3-3.2-0.2-2.3-2.6c2.5-7.8,6.4-15.1,7.8-23.4
	c1.1-6.9,0.1-9.4-6.1-12.5c-7.7-3.9-15.6-3.8-23.4-0.7c-4.3,1.7-5.8,4.7-5.1,9.6c1.6,10.8,6.1,20.6,10.1,30.5
	C443.6,520.9,443.1,520.9,442.5,520.5z"/>
<path class="st2" d="M477.3,493.2c4-8.9,10.1-16.7,14.8-25.2c11.6-21.1,22.5-42.5,26.2-66.5c2.9-18.8,0.1-37-10.7-53.3
	c-5.1-7.7-3.4-15.9,3.6-21.6c14.4-11.8,28.5-23.9,42.7-35.9c12.3-10.4,24.2-21.3,37-31c12.7-9.5,19.1-21.9,21.6-37.2
	c4.4-26.4,9.5-52.7,14.5-79c2.8-14.4,5.8-28.9,7.8-43.5c0.2-1.2,0.5-2.2-0.8-3c0.2-1.1,0.4-2.2,0.5-3.3c5.1,0.7,6.6,5.4,9.6,8.5
	c1,1.2,2.2,2.3,3.2,3.4c0.4,0.4,0.7,0.8,1,1.3c8.2,10.6,14.6,22.3,21.9,33.5c25.3,45.2,41.8,93.7,54.5,143.7
	c5.2,20.3,9.5,40.8,13,61.5c1.3,5.7,1.1,11.5,2,17.3c0.2,1.1-0.1,1.8-1.4,1.5c-8.5-0.6-16.7,2.1-25.1,2.4c-7.4,0.9-8.2,0.6-9.1-6.6
	c-2.5-19.7-6-39.2-9.4-58.7c-3.6-20.8-7.8-41.6-12.7-62.2c-6.1-25.9-13.1-51.5-21.5-76.7c-4.6-13.9-9.5-27.9-16.4-41.2
	c-0.6,20.1-1.9,39.9-3.2,59.6c-2.1,32.4-6.4,64.4-12.4,96.2c-5.6,29.7-12.3,59.2-22.5,87.8c-5,14-9.7,28-16.6,41.2
	c-1.5,2.9-3.4,5.1-6,6.8c-18.9,11.4-37.7,22.9-55.3,36.2c-16.8,12.8-32.8,26.6-47.9,41.4C479.4,491.5,478.3,492.3,477.3,493.2z"/>
<path class="st2" d="M269.3,97.1c-1.7,5.3,0.7,10.3,1.6,15.4c5.4,30.9,10.8,61.8,16.8,92.5c2.2,11.2,3.4,22.7,7.5,33.6
	c4.1,11,13.3,17.6,21.8,24.8c11.8,10.1,23.7,20.1,35.5,30.1c12.9,10.9,25.7,21.8,38.8,32.5c5.6,4.6,7.9,17,3.9,23.2
	c-6.1,9.5-9.3,20-10.6,31.2c-2.6,22.3,5,42.3,13.7,62c7.3,16.5,16.1,32.2,26.3,47.2c0.7,1.1,1,2.4,1.5,3.7
	c-17.4-16.3-35.1-32.3-54.3-46.5c-17.4-12.8-35.7-24-54.2-34.9c-5.3-5.9-7.6-13.3-10.5-20.3c-14.3-34.9-23.8-71.1-30.9-108.1
	c-5.3-28-9.9-56.1-12.4-84.4c-1.5-17-3.1-34.1-4-51.2c-0.5-8.4-0.8-16.9-0.9-25.5c-3.1,6.9-6.9,13.4-9.3,20.6
	c-4.1,12.6-9.2,24.9-12.9,37.6c-6,20.3-11.4,40.8-16,61.4c-4.1,18.4-7.9,36.9-11.3,55.4c-3.8,20.8-7.1,41.7-10.3,62.7
	c-1.2,7.6-0.9,7.7-9,6.7c-8.4-0.4-16.6-3-25.1-2.5c-1.3,0.3-1.6-0.4-1.4-1.5c0.3-5.8,1.3-11.6,2.1-17.4c1.4-10.7,4.5-21,6-31.6
	c7.2-33.1,16-65.7,27.4-97.6c10.1-28.3,22-55.8,37.4-81.6c6-9.2,11.9-18.5,18.4-27.4c0.3-0.5,0.6-0.9,0.9-1.3
	c1.2-1.3,2.5-2.6,3.7-3.9c2.3-1.9,5-3.3,6.3-6.2c0.8-0.9,1.4-2.3,3-2.1C268.9,94.9,269.1,96,269.3,97.1z"/>
<path class="st3" d="M190,366.8c5.6,0.8,7.1-1.3,7.6-7.2c0.9-11.6,3.4-23,5.3-34.5c2.3-14.1,4.2-28.4,7.3-42.4
	c2.9-13.4,5.8-26.9,8.7-40.3c4.3-20,9.5-39.8,15.3-59.4c6.3-21.3,13.9-42.1,23-62.4c0.6-1.3,0.5-3.5,2.7-2.9c1.6,0.4,0.9,2.3,1,3.6
	c0.4,13.5,0.4,27.1,1.3,40.6c1,15.2,3.3,30.4,4.2,45.7c0.7,11.7,2.7,23.2,4.2,34.7c1.4,11.1,3.7,22.1,5.8,33.2
	c3.3,17.5,6.5,35,11.3,52.1c5,17.9,9.9,35.7,16.9,53c4.3,10.4,9.1,20.6,13,31.2c-14.2-6.7-28.1-14-42.7-19.9
	c-26.8-10.8-54.2-19.5-82.7-24.3C191.4,367.5,190.7,367.1,190,366.8z"/>
<path class="st3" d="M583.6,413c6.2-8.4,9.8-18.1,13.6-27.7c7.4-18.8,13.6-38.1,18.5-57.7c3.5-14.1,6.3-28.3,9.5-42.4
	c5.3-22.9,8.1-46.2,11.2-69.5c1.4-10.6,2-21.3,2.8-32c1.8-22.3,3.5-44.6,3.3-67c0.5-0.1,1-0.3,1.5-0.4c1.9,4.3,3.9,8.5,5.7,12.8
	c9.6,22.3,17.3,45.4,23.6,68.8c3.5,13.2,7.1,26.4,10.1,39.9c3.2,14.5,6.5,29,9.3,43.6c4.3,22.1,7.9,44.4,11,66.7
	c0.7,5.1,1.6,10.2,2.3,15.3c0.7,4.8,4.5,3,7.2,3.6c-10.1,2.3-20.2,4.4-30.3,7c-32.8,8.3-64,20.7-93.8,36.7
	C587.5,411.4,585.5,412.2,583.6,413z"/>
<path class="st3" d="M865.8,130.8c-26.8,14.4-36.1,38.7-38.1,67.1c-0.5,6.9-0.2,13.8-0.3,20.7c-3.7,0-4.5-3.2-5.8-5.6
	c-16-28.7-35.8-54.2-61.1-75.4c-27.2-22.8-58.2-37.9-93-45.3c-2.3-0.5-4.6-0.4-6.9-0.8c-1.5-0.2-3.3-0.4-3.4-2.4
	c-0.2-1.6,1.2-2.3,2.4-2.9c5.2-3,10.9-5,16.6-6.7c17.1-5.3,34.7-9.1,52.7-9.1c32.1,0,61.9,8.6,89.6,24.8
	C835.8,105.2,851.5,117,865.8,130.8z"/>
<path class="st3" d="M75.7,193.5c-1.9-7.8-2.5-15.9-5.1-23.6c-6-17.3-16.8-30.4-33-39.1c15.9-14.9,32.7-28.6,52.3-38.4
	c14.5-7.3,29.3-13.5,45.1-17.5c23.6-5.9,47.1-5.8,70.9-0.9c10.4,2.1,20.5,5,30.5,8.6c2.7,1,5.3,2.3,7.8,3.8c1.3,0.8,3,1.5,2.8,3.3
	c-0.3,1.9-2.3,1.8-3.7,2c-18.9,2.4-36.8,7.9-54,16.2c-34.7,16.7-62.8,41.3-85.7,72.1c-2.4,3.3-5,6.3-7.9,9.2
	c-2.2,1.3-3.6,3.1-3.8,5.8c-0.7,1.9-1.4,3.8-3.5,4.7c-1.9,0.3-2.7-0.8-3.3-2.4C82.5,190.3,82.5,190.3,75.7,193.5z"/>
<path class="st3" d="M149.8,326.2c-8.8-15.7-19.4-30-33.6-41.3c-9.3-7.3-19.7-12.6-30.3-17.5c0.1-2.3,1.8-3.9,2.5-6
	c8-18.8,16.6-37.4,28.1-54.4c2.1-2.5,3.2-5.7,5.7-7.9c4.8-7.3,11.3-13.1,16.1-20.4c2.6-3.4,5.3-6.6,8.3-9.6c3.1-2.6,6.9-4.5,9.2-8.1
	c6.4-6,12.4-12.3,20-16.9c1.8-1,3.4-2.3,4.8-3.8c2.6-2.6,6.1-3.9,9-6.1c3.1-2.3,6.3-4.5,9.4-6.8c2.4-2,5.2-3.5,8-4.8
	c1.9-0.8,3.7-1.6,5.2-3c2.4-1.6,5.1-2.7,7.7-4.1c4.5-2.3,9.3-4.1,13.7-6.7c1.6-1.1,3.1-2.4,5.3-2.3c1.2,0.1,2.2,0.5,2.6,1.7
	c-1.2,4.1-5.1,6-7.6,9.1c-2.1,2.2-3.6,4.8-5.8,7c-1.2,1.6-2.3,3.3-3.7,4.7c-1.3,1.3-2.5,2.5-3.7,3.9c-4.4,5.4-7.6,11.6-12.1,16.8
	c-1.5,1.8-2.7,3.8-3.8,5.9c-0.9,1.7-1.7,3.5-2.7,5.2c-11.1,16.5-19.3,34.5-26.7,52.9c-5.2,12.9-9.4,26.1-12.7,39.5
	c-4.5,18.3-8,36.8-9.2,55.7C153.2,314.9,153.7,321.1,149.8,326.2z"/>
<path class="st3" d="M817.5,267.4c-10.8,4.9-21.3,10.3-30.7,17.7c-14.7,11.6-25.2,26.6-34.3,42.7c-3.1-6-2.2-12.7-2.7-19
	c-1.8-19.6-4.5-38.9-9.9-57.9c-3.8-13.1-7.4-26.3-12.5-39c-6.8-16.8-14.9-32.9-24.3-48.4c-9.6-15.9-20.5-30.6-32.6-44.6
	c-2.5-2.9-5.3-5.6-8.3-8c-1.3-1.1-3.2-2.4-2.1-4.2c1.1-1.8,3.2-0.8,4.7-0.1c8.9,4.5,18.1,8.5,26.8,13.4c21.3,12,40.3,27,58.4,43.1
	c7.6,6.8,13.7,15.1,20.4,22.8c17.3,19.9,30,42.7,41.2,66.4C814,257.3,814.8,262.8,817.5,267.4z"/>
<path class="st2" d="M94.3,188.6c11.9-15.3,23.9-30.6,38-43.8c14.5-13.5,30.7-25.1,48.5-34.3c10.6-5.5,21.3-10.6,32.7-13.8
	c10.6-3,21.1-6.7,33.6-6.5c-5-3.8-9.7-5.8-14.4-7.4c-22.4-7.6-45.5-12.2-69.2-10.7c-17.2,1.1-33.9,4.9-50.2,11.4
	c-19.4,7.7-37.4,17.5-53.9,30.1c-4.7,3.6-9,7.7-13.4,11.7c-2.6,2.3-5.1,4.7-8.5,5.6c-8.7-3.7-17.7-5.9-28.1-6.5
	c8.7-13.9,19.2-24.8,31.5-34.1c8-4.2,14.9-10,22.7-14.5c25.6-14.6,53-22.7,82.4-23.7c22.3-0.8,44.5,1.2,65.8,8.9
	c0.9,0.3,1.9,0.3,2.7-0.5c19.1,5.8,36.2,15.1,49.7,30.1c1.4,4.3-2.1,4.7-4.6,5.4c-4,1.1-8.2,1.8-11.9,3.7c-7.6,3.6-16,5-23.5,9
	c-30.1,11.8-57.7,28.1-82.3,49c-23.4,19.8-42.8,42.9-57,70.3c-1.2,2.2-2.6,4.3-3.7,6.5c-1.8,3.3-3.3,6.8-4.8,10.2
	c-0.8,1.9-1.2,4.6-4.3,4.2c1.3-10.4,2.6-20.8,3.8-31.2c3-7,5.9-14,12.6-18.5c0.8-1.5,1.5-3.1,2.3-4.6
	C91.5,192.2,92.9,190.4,94.3,188.6z"/>
<path class="st2" d="M865.8,130.8c-7.1-1.8-10.9-8.2-16.1-12.4c-14.9-11.9-30.9-21.8-48-30.2c-16.2-8-33.3-12.5-51-15
	c-17.9-2.5-35.9-1.6-53.6,2.4c-13.5,3-26.7,6.5-40.7,13.8c6.7,1.1,11.8,1.4,16.8,2.6c16.2,3.8,31.6,9.6,46.6,16.9
	c21.2,10.3,39.9,24.2,56.5,40.7c18.8,18.7,34.8,39.8,47,63.5c1,2,2,4.2,4.1,5.4c1.3,10,2.6,20,3.9,30c-3.5,0.4-3.7-2.7-4.6-4.7
	c-3.1-7.2-6.7-14.2-10.4-21c-11.1-18.5-23.8-35.9-39.3-51c-20.9-20.4-43.9-37.9-70.2-50.8c-6.2-3-12.3-6.3-18.6-9.2
	c-10.7-5-22-8.4-33.1-12.4c-3.7-1.6-7.5-2.7-11.4-3.6c-2.7-1.4-6.6-1.4-6.9-5.7c2.6,0.8,3.7-1.4,5.1-2.8c7.3-7.4,15.4-13.6,25-17.8
	c8.8-2.7,17-7,25.9-9.2c34.6-10.7,69.4-11.8,104.4-2.3C818.9,64,838.9,73.5,857,87c1.6,1.2,3.1,3,5.4,3.1
	c12.4,9.3,22.7,20.4,31.7,34.1C883.6,125,874.5,127.1,865.8,130.8z"/>
<path class="st2" d="M817.5,267.4c-2.3-0.2-3.3-1.9-3.7-3.9c-2.3-10.9-8.7-19.9-13.2-29.7c-6.3-14.1-15.1-26.7-24.6-38.6
	c-10.9-13.7-21.9-27.4-35.9-38.5c-11.7-9.3-22.9-19.2-35.7-27c-14-8.6-28.2-16.8-43.7-22.6c5.2,4.7,9.7,9.8,14.3,15
	c12.2,13.8,22.2,29.2,31.9,44.8c7.8,12.5,14.1,25.8,19.9,39.3c5.9,13.5,9.9,27.7,13.9,41.9c5.9,20.9,9.3,42.1,10.7,63.7
	c0.3,5.3,0.6,10.7,1.2,16c-4.5,10.4-8.1,21.2-11.6,32c-2.7,0.2-2.4-2.1-2.4-3.5c0-4.2-1.1-8.3-1.6-12.4
	c-7.3-40.9-16.3-81.3-30-120.7c-10-28.8-22.1-56.6-37.2-83.2c-7.1-11.5-14.2-23-22.7-33.6l0,0c-1-1.6-2.3-2.9-3.4-4.4
	c-1.2-1.5-2.3-3-3.6-4.4c-0.8-0.8-1.9-1.7-0.8-2.9c0.9-0.9,2.1-0.5,3.2-0.1c3.8,2,8.2,2.2,12,4c10.8,3.9,21.6,7.7,32.1,12.4
	c24.1,11.3,47,24.5,67.8,41.2c24,19.3,44.4,41.9,60.4,68.2c0.7,1.2,1.6,2.2,2.2,3.3c6.1,11.4,11.6,23,16.5,35c2,3.3,1.8,4.7-2.7,5.2
	C826.3,264.4,822,266.2,817.5,267.4z"/>
<path class="st2" d="M149.8,326.2c2.9-17.5,3.2-35.4,6.9-52.8c3.1-14.2,6.4-28.2,10.8-42c7.2-22.8,17.3-44.3,28.9-65.1
	c1.3-2.4,2.9-5,5.4-6.6c3,1.2,5.1,1.2,7-2.3c1.9-3.5,4.3-6.7,5.8-10.5c0.7-1.7,1.8-3.4,3.2-4.8c1.3-1.2,2.9-2.3,4.6-1
	c1.5,1.1,0.9,2.8,0.3,4.3c-3.9,9.5-6.9,19.3-13.4,27.6c-5.5,7-8.3,15.5-11.2,23.8c-1.5,4.2-2,8.4-5.2,12.3c-3.3,4-0.2,8.6,2.9,12.2
	c-1.2,10.2-5.6,19.5-8.4,29.2c-5.8,20.1-10.9,40.2-15,60.7c-2.3,10.7-4.3,21.5-6.2,32.2c-0.4,4.1-1.3,8.1-1.8,12.2
	c-0.2,1.4,0.8,4.1-2.4,4.1C158.8,348.4,154.8,337.1,149.8,326.2z"/>
<path class="st2" d="M194.9,221c-6.1-3.5-6.6-11.1-0.9-15.2c1-0.7,1.9-1.4,2-2.6c0.5-11.7,6.7-21.2,12-31
	c3.9-7.2,10.9-12.9,10.4-22.3c-0.2-2.8,4.6-4.1,3.6-8.6c-4.3,2.2-6.1,5.8-7.3,9.8c-1.3,4.4-4.8,7.5-7.2,11.1
	c-1.8,2.8-4.1-0.4-5.6-2.5c0.2-1.8,0.8-3.4,2.3-4.6c1.4-1.8,2.8-3.6,3.5-5.8c4.5-5.6,7.6-12.2,12.7-17.3c0.7-0.3-0.3-0.1,0.4-0.3
	c1.5-0.5,3.7-0.5,3-3.2c1.2-1.5,2.3-3.1,3.5-4.6c4.8,0.1,4.8-3.9,5.8-6.9c2.2-3.2,4.9-5.9,8.1-8.1c0.7-0.6,1.8-0.4,3.1-1.3
	c-2.1-0.8-3.7-1.5-5.4,0.1c-2-0.2-3,1.7-4.6,2.3c-5.2,1.2-10.5,2.1-13.9,6.9c-2.7,1.1-5.1,3.1-8.1,3.5c-1.9,0.7-3.6,1.6-4.6,3.5
	c-2.7,1.5-5.4,3.1-8.1,4.6c-3.8,1.3-7.1,3.4-9.3,6.9c-3.1,1.9-6.2,3.9-9.3,5.8c-1.7,0.9-3.5,1.8-4.6,3.5c-6.7,5.6-13.6,11-19.7,17.3
	c-0.9,0.7-2,1.4-3.1,1.2c-5.4-0.6-6.8,2.1-6.2,6.9c-2.7,3.1-5.4,6.2-8.1,9.2c-3.6,2.5-7,5.3-11.8,4.8c-2.6-0.3-3,1.7-3.7,3.5
	c-1.1,2.9-2.2,5.8-5.8,6.3c-0.1,0.1-0.2,0.1-0.3,0.2c0.3-0.2,0.7-0.3,1.1-0.4c5-0.2,5.6,2.4,4.3,6.4c-3.2,1.3-2.6,5.7-5.8,6.9
	c-0.6,0.5-1.2,1-2,1c-5.8-0.5-8.2,1-10,6.5c-1,3.1-3.5,5-6.2,6.6c-3.5,2.1-6,4.7-6.2,9c0,1.1-0.4,2.4-1.1,3.2
	c-6.9,7.8-8.2,18.8-14.7,26.6c3.7,3.1,8.8-1.1,12.5,2.5c-1.3,1.6-2.5,3.2-3.8,4.8c-3.8-1.1-7.6-2.2-11.3-3.3c-1-1.7-4.1-1.2-4.1-3.9
	c1.3-9.3,6.8-16.9,10.2-25.4c12.8-25.1,29.6-47.2,50.1-66.6c11-10.5,22.8-20.1,35.4-28.8c1.6-1.1,3.2-2.2,5.2-2.3
	c1.4,0.5,3.1,1.4,2.5-1.5c4.1-5.4,10.4-7.7,16-10.8c11.3-6.4,22.9-12.4,35-17c7.7-3.9,16.2-5.8,24-9.4c4.9-2.2,10.4-2.3,15.3-4.6
	c1.7-0.8,2.9,0,2.6,2.2c-0.6,4-4.2,5.1-6.9,6.9c-1.7,0.6-2.5,2.1-3.5,3.5l0,0c-6.9,8.8-13.1,18-19.1,27.5
	c-15.7,26-27.9,53.6-38.5,82C198,217.9,198.1,220.7,194.9,221z"/>
<path class="st4" d="M862.4,90.1c-1.5,2.2-2.5,0.4-3.7-0.5c-24.7-19-52.9-30-83.5-34.8c-17.8-2.8-35.9-2.3-53.8,0.4
	c-9.9,1.5-19.6,3.3-29.1,6.2c-1.4,0.4-3.1,1.7-3.5-1.2c21.5-7.6,43.9-11.2,66.5-10.2C795.2,51.8,831.5,64,862.4,90.1z"/>
<path class="st4" d="M214.6,60.3c-1.6,2-3.4,0.9-5.2,0.4c-22.9-6.6-46.4-9-69.9-7C110.7,56,83.5,64.3,59,80c-5,3.2-9.8,6.6-14.7,10
	c-1.2,0.8-2.1,1.9-3.3,0.1c15.6-13.8,33.8-23.2,53.3-30c20.5-7.1,41.7-11.2,63.4-10c18.5,1,37.1,2.6,54.6,9.8
	C213.1,60.2,213.9,60.1,214.6,60.3z"/>
<path class="st5" d="M88.5,199c-4.2,6.2-8.4,12.3-12.6,18.5c-0.1-8-0.2-16-0.3-24c1.1-4.3,4.6-3.9,7.7-3.5c3.1,0.4,2.8,3,2.8,5.3
	C86.2,197,86.1,198.8,88.5,199z"/>
<path class="st6" d="M266.6,96.1c-0.4-0.9-1.2-2.1-2-1.6c-4.7,3.2-10.6,2.4-15.4,5c-0.6-0.8-1.8-0.3-2.3-1.2c3.2-2,6.8-2.8,10.5-3.6
	c2.7-0.6,6.4-0.2,6.9-4.5c6.5-1.9,11.2-5.8,12.9-12.7c0.7-0.7,1.3-0.7,2,0c-0.9,7-4.2,12.5-10.4,16.1
	C268.1,94.6,267.4,95.3,266.6,96.1z"/>
<path class="st7" d="M642.5,95c-0.8,0.6-4-1.2-2,1.9c1.2,1.8,2.9,3.3,4.3,5c-0.3,0.4-0.5,1.1-1.2,1.2c-3.3-2.8-5.3-6.9-9-9.3
	c-5.9-3.8-10.1-8.7-10.5-16.1c0.7-0.7,1.3-0.7,2,0c1.1,6.2,6,9.3,10.6,12.5c1.6,2.5,4.7,3,6.9,4.8C643.3,95.4,642.9,95.4,642.5,95z"
	/>
<path class="st8" d="M833.5,258.9c-0.9,0.9-1.1,0.3-1.4-0.5c-4.5-11.7-10.1-22.9-16.1-33.9c0.7-0.6,0.2-1.8,1.2-2.3
	c4.3,6.3,7.3,13.4,10.4,20.3c1,2.2,1.4,4.8,3.7,6.2C832.5,252,833.4,255.3,833.5,258.9z"/>
<path class="st9" d="M81.6,234.9c-2.8,8.7-8.7,16.2-10.4,25.4c-1.2,0.2-1.9-0.1-1.3-1.5c0.2-3.5,1-6.8,2.3-10.1
	c4.4-4.1,4-10.8,8.3-15C81.1,233.8,81.3,234.4,81.6,234.9z"/>
<path class="st10" d="M688.8,60.3c0.8,1.4,2.2,1.1,3.5,1.2c-7.8,2.9-15.6,5.9-23.4,8.8c-0.8,0.3-1.5,0-2-0.7
	C673.6,65.3,681,62.4,688.8,60.3z"/>
<path class="st11" d="M737.4,343.6c1.7,3.7,1.9,7.7,2.3,11.6c0.2,1.7-0.4,3.5,1.4,4.7c-0.1,0.7-0.1,1.5-0.2,2.2
	c-0.5,0.4-0.6,1.1-1.3,1.1c-3.3-5.4-1.2-11.8-3.3-17.3C737,345.3,736.6,344.1,737.4,343.6z"/>
<path class="st11" d="M162.3,359.9c2.4-3.7,1.5-8.1,2.5-12.1c0.3-1.4-0.3-3.1,1.2-4.2c0.8,0.6,0.4,1.7,1.2,2.3
	c-1.5,5.8-0.6,12.1-3.7,17.5c-0.4,0.4-0.7,0.3-0.9-0.2C162.5,362.1,162.4,361,162.3,359.9z"/>
<path class="st12" d="M460.9,516.9c0.8,0.9,1.5,1.7,2.3,2.6c-3.6,0.3-1.8,3.6-2.9,5.3c-0.6,0.8-1,1.7-2.1,1.4
	c-1.2-0.3-1.1-1.5-0.8-2.3C458.5,521.5,459.7,519.3,460.9,516.9z"/>
<path class="st13" d="M442.5,520.5c0.6,0,1.1-0.1,1.7-0.1c1,1.7,2.7,3.3,1.5,5.6c-0.1,0.3-1.2,0.4-1.5,0.2
	C442.4,524.7,442.5,522.6,442.5,520.5z"/>
<path class="st2" d="M69.9,258.8c0.4,0.5,0.9,1,1.3,1.5c1.1,1.3,2.2,2.6,3.4,3.9c-1.9-0.2-3.8-0.3-5.6-0.5c-0.7-0.7-0.6-1.4-0.3-2.2
	C69.1,260.6,69.5,259.7,69.9,258.8z"/>
<path class="st14" d="M739.5,363.2c0.4-0.4,0.9-0.7,1.3-1.1c0,2.6,0,5.2,0,7.8c-0.2,0-0.4,0.1-0.6,0.1c-0.6-1.9-1.2-3.8-1.8-5.7
	C738.8,364,739.2,363.6,739.5,363.2z"/>
<path class="st15" d="M68.7,261.4c0.1,0.7,0.2,1.5,0.3,2.2c-0.4,1.9-0.8,3.9-1.3,5.8c-1,0.3-1.5,0.1-1.1-1.1
	C66.7,265.9,67.1,263.5,68.7,261.4z"/>
<path class="st16" d="M162.6,363.2c0.3,0.1,0.6,0.2,0.9,0.2c0.5,0.3,1,0.7,1.4,1c-1.1,1.7-1.2,3.8-2.3,5.8
	C162.6,367.8,162.6,365.5,162.6,363.2z"/>
<path class="st17" d="M500.5,302.2c-0.9,1.4-2,2.2-2.5-0.1c-0.3-1.6-0.3-3.5,0.9-5C500,298.7,498.1,301.1,500.5,302.2z"/>
<path class="st18" d="M279.2,77.7c-0.7,0-1.3,0-2,0c0-1.4,0-2.9,0-4.7C279.1,74.3,279.5,75.8,279.2,77.7z"/>
<path class="st19" d="M66.5,268.4c0.4,0.4,0.7,0.7,1.1,1.1c-0.1,1.1-0.3,3.1-1.4,2.6C64.6,271.3,65.3,269.6,66.5,268.4z"/>
<path class="st20" d="M626.2,77.7c-0.7,0-1.3,0-2,0c-0.6-1.9,0.6-3.1,1.6-4.8C626.7,74.7,626.4,76.2,626.2,77.7z"/>
<path class="st21" d="M836.3,269c-0.8-1.4-1.5-2.3-0.9-3.4c0-0.1,0.8,0,0.9,0.2C837,266.5,837,267.5,836.3,269z"/>
<path class="st14" d="M627.7,67.5c0.4,0.9,0.8,1.3,0.8,1.7c-0.1,0.4-0.5,1-0.9,1.2c-0.6,0.4-1.1-0.2-1-0.7
	C626.7,69.1,627.2,68.5,627.7,67.5z"/>
<path class="st22" d="M451.2,300.8c-2.6-1.2-8,2.7-8.6-3.8c-0.3-3.8,5.5-9,9.3-8.8c4.5,0.2,8.9,4.2,9,8.3
	C461,300.3,460,300.8,451.2,300.8z"/>
<path class="st23" d="M429.6,278.5c0.1-0.5,0.1-1.1,0.2-1.6c-1.8-2.1,1.1-5.7-2.4-7.3c4.1-2.2,7.7-1.7,10.4,2.3
	c0.9,2.3,1.9,4.8-0.4,6.8C434.9,280.8,432.2,279.9,429.6,278.5z"/>
<path class="st24" d="M472.9,279.7c-0.8,0.1-1.6,0.2-2.5,0.3c-5.6-1.6-6.3-2.7-5-8c2.8-3.9,6.3-4.7,10.5-2.3
	c-1.3,1.1-3.7,1.7-1.9,4.3C475.5,276.1,473.8,277.9,472.9,279.7z"/>
<path class="st25" d="M459,313.6c-5.2,2.5-10.8-0.3-16.2,1.6c-1.8,0.7-1.5-2.6-3.6-4.1c9.3,1.4,17.8,2.6,26.2-1
	c-1.6,1.9-3.5,3.4-4.3,5.7C460.1,315.3,459.6,314.4,459,313.6z"/>
<path class="st26" d="M472.9,279.7c1.3-3.5,0.2-6.4-2.6-8.6c1.9-2.3,3.9-1.1,5.7-1.5C479.8,273.5,479.6,274.4,472.9,279.7z"/>
<path class="st27" d="M429.6,278.5c7.8,0.6,8.2,0.3,8.2-6.6c1.1,0.9,2.4,1.7,3.3,2.8c2.1,2.7,1.8,5.2-1.8,5.9
	C436,281.3,432.2,282,429.6,278.5z"/>
<path class="st28" d="M465.5,271.9c-0.5,4,2,6.2,5,8c-0.7,0.3-1.4,0.8-2,0.8c-2.6-0.2-5.9,0.4-6.9-2.7
	C460.5,275.1,463.1,273.3,465.5,271.9z"/>
<path class="st29" d="M427.4,269.6c3.2,0.2,7.3-0.2,2.7,4.6c-0.5,0.5-0.2,1.8-0.3,2.7C425.6,275.6,423.7,273.5,427.4,269.6z"/>
<path class="st30" d="M459,313.6c1.9-0.4,2.1,0.9,2.1,2.2C458.2,317.2,459.6,314.4,459,313.6z"/>
<path class="st31" d="M737.4,343.6c0,0.9-0.2,1.8-1.2,2.3c-2.7-17.6-6.7-34.9-10.7-52.3c-8.1-35.2-19-69.6-32.6-103
	c-5.8-14.4-11.9-28.8-20.1-42.1c-1.6-2.6-3.3-5.2-3.7-8.4c-0.3-1.1,0.1-1.5,1.2-1.2c11,17.7,19.7,36.5,27.6,55.7
	c10.7,25.7,19.2,52.2,25.9,79.2C729.4,296.8,734.7,320,737.4,343.6z"/>
<path class="st32" d="M670.3,138.9c-0.4,0.4-0.8,0.8-1.2,1.2c-4.4-3.2-5.5-8.5-8.4-12.7c-4.7-6.8-9-13.9-13.5-20.9
	c7.7,7.2,12.9,16.4,18.8,25C667.6,133.8,668.8,136.4,670.3,138.9z"/>
<path class="st33" d="M643.7,103.1c0.4-0.4,0.8-0.8,1.2-1.2c0.7,1.6,2.5,2.6,2.3,4.6C645.6,105.8,644.4,104.6,643.7,103.1z"/>
<path class="st34" d="M194.9,221c6.2-13.5,10.7-27.8,17-41.3c7.4-16,15.3-31.7,24.7-46.6c1.1-0.3,1.5,0.1,1.2,1.2
	c-3.8,7.3-7.8,14.5-11.5,21.8c-19.3,38.3-33.2,78.7-44,120.1c-3.2,12.4-6.2,24.8-9.3,37.2c-2.2,0.1-1.9-1-1.2-2.3
	c1.8-13.6,5.3-26.9,8.6-40.2c3.7-14.8,8.1-29.4,13.1-43.9C194.2,225.1,194.5,223.1,194.9,221z"/>
<path class="st35" d="M171.8,311.2c0,1,0.2,1.8,1.2,2.3c-0.8,9.5-3.6,18.6-5.2,27.9c-0.3,1.5-0.4,3-0.5,4.5
	c-0.9-0.5-1.1-1.4-1.2-2.3C167.1,332.6,168.8,321.8,171.8,311.2z"/>
<path class="st36" d="M237.8,134.3c-0.4-0.4-0.8-0.8-1.2-1.2c6-9.3,11.4-19,19.7-26.6C250.8,116.2,244.3,125.3,237.8,134.3z"/>
<path class="st36" d="M256.2,106.5c0.4-1.9,0.7-3.9,3.5-3.5C258.9,104.6,257.8,105.8,256.2,106.5z"/>
<path class="st5" d="M94.3,188.6c-0.3,2.5-2,4.1-3.5,5.8C90.4,191.5,91.4,189.5,94.3,188.6z"/>
<path class="st2" d="M89.7,262.6c-5-0.8-10.3,1.9-14.8-2.1c3.6-4.3,7.8-9,8-15.8c0-0.9,0.6-1.9,1.2-2.5c4.3-4.9,8-9.8,8.4-16.9
	c0.2-3,4.5-3.8,6.8-5.8c2.9-2.5,7.4-4.4,3.7-9.9c3.7-0.1,6.5-0.7,6.7-5.3c0.1-2.6,2.4-1.4,2.8,0.1c0.8,2.9,2.9,2.6,5,2.6
	c-4.7,8.4-9.9,16.6-14.1,25.3C98.5,242.3,93.2,252.1,89.7,262.6z"/>
<path class="st2" d="M117.5,194.4c1.1-1,3-2,3.1-3.1c1.3-12,12.8-7.7,18.9-11.9c-2.3,5.6-7.6,8.7-11,13.6c-1.7,2.4-3.1,5.2-5.2,7.3
	C123.3,196.3,121.8,193.9,117.5,194.4z"/>
<path class="st2" d="M147.5,170.1c-0.6-1.2-1.2-2.3-1.7-3.5c-1.3-3-0.4-4.7,3.1-4.6c2.6,0.1,5.2,0,7.9,0
	C154.7,165.8,150.6,167.4,147.5,170.1z"/>
<path class="st2" d="M220.4,116.9c-0.1-3.4-0.1-5.9,5-5.1c2.6,0.4,5-4.9,8.9-1.8C229.6,112.3,225,114.6,220.4,116.9z"/>
<path class="st2" d="M233.1,116.9c0,0.4,0,0.8,0,1.2c1.4,7.1,1,7.5-5.8,5.8C229.3,121.6,230.5,118.7,233.1,116.9z"/>
<path class="st2" d="M238.9,107.7c0.2-1.2,0.7-2.2,2.1-2.2c1.9-0.1,3.8-0.5,5.3,1.2c0.6,0.8,1,1.8,0.2,2.6c-1.8,1.7-3.5,0.3-5.2-0.4
	C240.7,107.9,239.8,107.7,238.9,107.7z"/>
<path class="st2" d="M190.3,135.4c0.9-5.2,4.9-6.3,9.3-6.9C196.5,130.8,193.4,133.1,190.3,135.4z"/>
<path class="st2" d="M207.7,123.9c0.6-2.5,1.1-4.9,4.6-3.5C212.1,123.4,209.1,122.6,207.7,123.9z"/>
<path class="st2" d="M176.4,144.7c-0.4-3.7,2.1-3.6,4.6-3.5C180,143.1,178.8,144.6,176.4,144.7z"/>
<path class="st2" d="M223.9,128.5c1.4,3.7-1,3.6-3.5,3.5C221.1,130.4,222.3,129.2,223.9,128.5z"/>
<path class="st2" d="M207.7,149.3c0.3,2.8-1.1,4.6-3.5,5.8C204.5,152.6,206.2,151,207.7,149.3z"/>
<path class="st37" d="M81.6,234.9c-0.4-0.4-0.8-0.8-1.2-1.2c8.8-18.7,20.5-35.3,34-51c15.8-18.4,34.2-33.6,54.2-47
	c16-10.8,33.2-19.4,50.9-27c1.4-0.6,2.9-0.8,4.4-1.1c1.2-0.4,1.4,0.1,1.2,1.2c-16.7,7.1-32.7,15.4-48,25.1c-1.1,0.7-2.3,1.3-2.9,2.6
	c-0.5,0.9-1.3,1.2-2.3,1.2c-10.4,5.9-19.5,13.5-28.6,21.2c-17.6,14.7-32.7,31.8-46,50.5C91.4,217.5,86.8,226.4,81.6,234.9z"/>
<path class="st38" d="M225,108.8c-0.4-0.4-0.8-0.8-1.2-1.2c6.9-5.1,15.6-5.7,23.1-9.2c0.9,0,1.8,0.2,2.3,1.2
	C241.2,102.7,233.1,105.7,225,108.8z"/>
<path class="st31" d="M817.2,222.2c0,0.9-0.2,1.8-1.2,2.3c-12.9-20.9-27.8-40-45.8-56.7c-16.9-15.7-35.5-29.3-55.5-40.8
	c-9.2-5.3-18.8-9.7-28.2-14.6c0-2,1-2,2.3-1.2c18.3,7.7,35.8,17,51.9,28.5c15,10.7,29.2,22.5,41.9,35.9
	C795.9,189.7,807.7,205.1,817.2,222.2z"/>
<path class="st39" d="M688.8,111.1c-0.9,0-1.8,0.2-2.3,1.2c-10.7-4.5-21.2-9.4-32.4-12.7c-0.3-1-0.1-1.6,1.1-1.2
	C666.7,102.1,678.3,105.2,688.8,111.1z"/>
<path class="st40" d="M655.3,98.4c-0.4,0.4-0.8,0.8-1.1,1.2c-3.6-2.2-8.4-1.4-11.6-4.6c0.4,0,0.8,0,1.2,0
	C647.9,95,651.7,96.3,655.3,98.4z"/>
<path class="st2" d="M171.8,137.7c0.5-0.9,1.3-1.1,2.3-1.2c1.3,0.7,3.1,1.9,1.6,3.3C173.4,141.9,172.9,138.9,171.8,137.7z"/>
<path class="st2" d="M227.5,135.4c-0.5-0.7-1-1.1-1.1-1.5c-0.1-0.8,0.2-1.5,1.1-1.7c0.8-0.1,1.6,0.1,1.3,1.1
	C228.6,134,228,134.5,227.5,135.4z"/>
<path class="st2" d="M117.5,194.3c-0.4,1.8-1,3.4-2.1,2.9c-2.1-0.8-0.2-1.5,0.5-2.1C116.4,194.9,116.9,194.7,117.5,194.3z"/>
<path class="st41" d="M447.9,292.8c2,1.9,1.6,3.4,0.7,5.3C446.5,296.7,446.9,295.1,447.9,292.8z"/>
</svg>
